<svg width="887" height="338" viewBox="0 0 887 338" fill="none" xmlns="http://www.w3.org/2000/svg">
<path fill-rule="evenodd" clip-rule="evenodd" d="M236.328 92.9257C228.72 97.1127 216.094 101.886 208.272 103.536C183.556 108.754 150.572 104.67 113.178 91.7629C73.19 77.9568 38.483 75.44 16.6323 84.7594C10.7693 87.2606 4.25455 82.9642 4.25455 76.5961V45.736C4.25455 21.2677 24.1132 1.43213 48.6101 1.43213H128.13H210.005C233.051 1.43213 251.589 20.3609 251.082 43.3741L250.505 69.5535C250.29 79.312 244.888 88.2176 236.328 92.9257ZM193.412 44.3623C182.483 50.3117 179.555 63.9135 187.5 71.8427C193.913 78.2434 202.439 78.7243 209.456 73.0813C218.596 65.732 218.963 57.9839 210.622 48.4175C203.017 39.6977 202.291 39.5297 193.412 44.3623ZM173.334 37.092C168.775 32.5426 159.388 35.9489 159.388 42.1551C159.388 49.0171 168.155 51.2374 172.871 45.568C175.802 42.0432 175.931 39.6845 173.334 37.092ZM41.7342 29.5285C38.7669 33.5803 38.4929 37.1018 40.8066 41.4173C46.804 52.6012 61.6506 46.8396 59.8286 34.035C58.4523 24.3433 47.5269 21.6256 41.7342 29.5285ZM15.635 118.63C22.8965 115.079 35.5217 110.362 43.691 108.148C68.2483 101.494 99.242 102.884 134.863 112.246C191.791 127.205 197.811 128.078 213.024 123.591C220.645 121.345 231.709 115.87 237.608 111.426C242.019 108.102 248.335 111.245 248.335 116.764V126.484C248.335 149.247 248.157 149.721 237.608 155.246C219.668 164.644 178.974 162.915 152.615 151.635C89.089 124.455 58.7917 123.058 6.31704 144.889C1.08213 147.066 0.435188 145.936 1.36594 136.241C2.25387 126.942 4.62376 124.016 15.635 118.63ZM203.37 152.442C208.367 151.731 210.377 149.092 210.377 143.255C210.377 133.856 201.907 130.592 195.989 137.707C190.381 144.454 194.982 153.638 203.37 152.442ZM0.781738 174.645C0.781738 161.521 7.73632 156.547 37.8487 148.127C61.6402 141.472 104.117 143.311 120.281 151.691C123.423 153.32 122.271 158.065 118.731 158.076L100.476 158.135C66.8224 158.243 47.1633 162.964 16.4601 178.308L11.0779 180.999C6.34833 183.363 0.781738 179.928 0.781738 174.645ZM135.408 179.491C178.717 188.066 209.509 187.16 232.465 176.635C240.288 173.051 247.054 169.994 247.51 169.839C247.965 169.687 248.335 183.53 248.335 200.6V218.533C248.335 226.388 243.374 233.389 235.957 236C229.151 238.395 210.955 240.259 195.524 240.138C172.075 239.956 161.507 237.884 131.16 227.521C98.2221 216.274 92.2478 215.23 66.796 216.278C44.8858 217.18 34.5414 219.384 19.5826 226.338L14.5678 228.669C8.19816 231.631 0.978132 226.7 1.42868 219.697C2.05063 210.062 7.71943 201.471 16.3389 197.101L26.1345 192.134C40.4926 184.854 59.2901 178.526 73.8166 176.082C95.423 172.441 101.51 172.781 135.408 179.491ZM78.2594 199.065C81.0484 203.572 88.914 203.47 91.746 198.894C92.9773 196.908 91.8219 193.129 89.1814 190.494C84.9829 186.303 83.8672 186.323 80.2563 190.665C77.9854 193.396 77.0876 197.174 78.2594 199.065ZM193.999 210.331C196.94 211.458 199.9 210.127 201.039 207.169C203.363 201.121 198.881 196.114 193.048 198.248C187.292 200.357 187.892 207.993 193.999 210.331ZM169.118 220.623C179.264 220.623 185.041 211.389 179.251 204.428C176.865 201.559 172.303 199.21 169.118 199.21C165.933 199.21 161.371 201.559 158.985 204.428C153.195 211.389 158.972 220.623 169.118 220.623ZM16.2621 246.074C23.8702 241.887 36.4955 237.114 44.3181 235.463C69.0339 230.245 102.018 234.33 139.412 247.237C179.4 261.043 214.107 263.56 235.957 254.24C241.82 251.739 248.335 256.035 248.335 262.403V293.264C248.335 317.732 228.476 337.567 203.98 337.567H124.459H42.5847C19.5392 337.567 1.00078 318.639 1.50792 295.625L2.08473 269.446C2.29972 259.687 7.70176 250.782 16.2621 246.074ZM59.178 294.637C70.1066 288.688 73.0344 275.086 65.0895 267.157C58.6762 260.756 50.1505 260.275 43.1331 265.918C33.9935 273.268 33.6272 281.016 41.968 290.582C49.5729 299.302 50.299 299.47 59.178 294.637ZM79.2561 301.907C83.8145 306.457 93.2017 303.051 93.2017 296.844C93.2017 289.982 84.435 287.762 79.7183 293.431C76.7873 296.956 76.6585 299.315 79.2561 301.907ZM210.856 309.471C213.823 305.419 214.097 301.898 211.783 297.582C205.786 286.398 190.939 292.16 192.761 304.964C194.137 314.656 205.063 317.374 210.856 309.471Z" fill="white"/>
<path d="M327.617 147.854C324.66 147.854 322.262 147.175 320.424 145.815C318.586 144.376 317.147 142.177 316.109 139.219L292.733 74.0912C291.454 70.493 291.654 67.4545 293.332 64.9758C295.09 62.4171 298.167 61.1377 302.563 61.1377C305.519 61.1377 307.837 61.8573 309.515 63.2966C311.194 64.6559 312.512 66.8149 313.471 69.7734L331.333 123.387H325.699L344.879 69.7734C345.998 66.8149 347.396 64.6559 349.074 63.2966C350.753 61.8573 352.91 61.1377 355.548 61.1377C358.185 61.1377 360.303 61.8573 361.901 63.2966C363.499 64.6559 364.818 66.8548 365.857 69.8933L383.838 123.387H379.043L397.384 69.7734C398.343 66.8149 399.622 64.6559 401.22 63.2966C402.899 61.8573 405.216 61.1377 408.173 61.1377C411.849 61.1377 414.527 62.4171 416.205 64.9758C417.963 67.4545 418.163 70.493 416.804 74.0912L393.189 139.339C392.15 142.217 390.711 144.376 388.873 145.815C387.115 147.175 384.757 147.854 381.801 147.854C378.764 147.854 376.326 147.175 374.488 145.815C372.73 144.376 371.331 142.177 370.292 139.219L353.39 91.7224H356.387L339.125 139.339C338.006 142.217 336.567 144.376 334.809 145.815C333.051 147.175 330.653 147.854 327.617 147.854Z" fill="white"/>
<path d="M425.978 147.854C423.5 147.854 421.422 147.295 419.744 146.175C418.066 144.976 417.027 143.377 416.627 141.378C416.228 139.299 416.587 136.98 417.706 134.421L447.555 70.1332C448.994 67.0148 450.752 64.7359 452.83 63.2966C454.988 61.8573 457.425 61.1377 460.142 61.1377C462.859 61.1377 465.217 61.8573 467.215 63.2966C469.293 64.7359 471.091 67.0148 472.609 70.1332L502.458 134.421C503.737 136.98 504.177 139.299 503.777 141.378C503.457 143.456 502.458 145.056 500.78 146.175C499.182 147.295 497.184 147.854 494.786 147.854C491.59 147.854 489.112 147.135 487.354 145.695C485.676 144.256 484.157 141.937 482.799 138.739L476.325 123.506L484.717 129.623H435.328L443.839 123.506L437.366 138.739C435.927 141.937 434.449 144.256 432.93 145.695C431.412 147.135 429.094 147.854 425.978 147.854ZM459.902 85.2456L445.997 118.469L442.64 112.712H477.524L474.168 118.469L460.142 85.2456H459.902Z" fill="white"/>
<path d="M534.896 147.854C531.38 147.854 528.663 146.895 526.744 144.976C524.826 142.977 523.867 140.218 523.867 136.7V80.2082H505.047C502.09 80.2082 499.812 79.4485 498.214 77.9293C496.696 76.3301 495.936 74.0912 495.936 71.2127C495.936 68.2541 496.696 66.0153 498.214 64.496C499.812 62.9768 502.09 62.2172 505.047 62.2172H564.745C567.702 62.2172 569.94 62.9768 571.458 64.496C573.057 66.0153 573.856 68.2541 573.856 71.2127C573.856 74.0912 573.057 76.3301 571.458 77.9293C569.94 79.4485 567.702 80.2082 564.745 80.2082H545.925V136.7C545.925 140.218 545.006 142.977 543.167 144.976C541.329 146.895 538.572 147.854 534.896 147.854Z" fill="white"/>
<path d="M592.623 146.775C588.867 146.775 585.99 145.815 583.992 143.896C582.074 141.897 581.115 139.059 581.115 135.381V73.6115C581.115 69.9333 582.074 67.1347 583.992 65.2157C585.99 63.2167 588.867 62.2172 592.623 62.2172H633.261C636.138 62.2172 638.296 62.9368 639.734 64.3761C641.173 65.8154 641.892 67.8943 641.892 70.613C641.892 73.4116 641.173 75.5705 639.734 77.0897C638.296 78.529 636.138 79.2486 633.261 79.2486H602.213V95.3206H630.623C633.421 95.3206 635.538 96.0402 636.977 97.4795C638.495 98.9188 639.255 101.038 639.255 103.836C639.255 106.635 638.495 108.754 636.977 110.193C635.538 111.632 633.421 112.352 630.623 112.352H602.213V129.743H633.261C636.138 129.743 638.296 130.503 639.734 132.022C641.173 133.462 641.892 135.54 641.892 138.259C641.892 141.058 641.173 143.177 639.734 144.616C638.296 146.055 636.138 146.775 633.261 146.775H592.623Z" fill="white"/>
<path d="M665.778 147.854C662.262 147.854 659.545 146.895 657.627 144.976C655.709 142.977 654.749 140.218 654.749 136.7V73.3716C654.749 69.7734 655.709 67.0148 657.627 65.0957C659.624 63.1767 662.382 62.2172 665.898 62.2172H695.387C704.977 62.2172 712.37 64.576 717.564 69.2936C722.839 73.9313 725.476 80.4081 725.476 88.7239C725.476 94.0812 724.277 98.7589 721.88 102.757C719.562 106.675 716.166 109.713 711.691 111.872C707.295 113.951 701.861 114.991 695.387 114.991L696.346 112.832H702.1C705.537 112.832 708.574 113.671 711.211 115.351C713.848 116.95 716.046 119.429 717.804 122.787L723.798 133.581C725.077 135.9 725.676 138.179 725.596 140.418C725.516 142.577 724.637 144.376 722.959 145.815C721.361 147.175 719.003 147.854 715.886 147.854C712.769 147.854 710.212 147.215 708.214 145.935C706.296 144.656 704.578 142.657 703.059 139.938L692.151 119.908C691.192 118.149 689.953 116.95 688.435 116.31C686.996 115.59 685.318 115.231 683.4 115.231H676.807V136.7C676.807 140.218 675.888 142.977 674.049 144.976C672.211 146.895 669.454 147.854 665.778 147.854ZM676.807 99.6384H691.431C695.667 99.6384 698.904 98.7989 701.141 97.1197C703.379 95.4405 704.498 92.8418 704.498 89.3236C704.498 85.9653 703.379 83.4465 701.141 81.7674C698.904 80.0083 695.667 79.1287 691.431 79.1287H676.807V99.6384Z" fill="white"/>
<path d="M304.96 255.8C301.763 255.8 299.286 254.921 297.528 253.162C295.85 251.402 295.01 248.924 295.01 245.725V179.159C295.01 175.88 295.929 173.402 297.768 171.722C299.606 169.963 302.203 169.084 305.559 169.084C308.357 169.084 310.554 169.643 312.153 170.763C313.831 171.802 315.349 173.561 316.708 176.04L342.481 222.337H338.286L363.939 176.04C365.378 173.561 366.896 171.802 368.494 170.763C370.173 169.643 372.41 169.084 375.207 169.084C378.404 169.084 380.842 169.963 382.52 171.722C384.278 173.402 385.157 175.88 385.157 179.159V245.725C385.157 248.924 384.318 251.402 382.64 253.162C380.961 254.921 378.484 255.8 375.207 255.8C372.011 255.8 369.533 254.921 367.775 253.162C366.097 251.402 365.258 248.924 365.258 245.725V204.466H367.775L348.475 238.049C347.356 239.808 346.157 241.128 344.879 242.007C343.68 242.887 342.042 243.327 339.964 243.327C337.966 243.327 336.328 242.887 335.049 242.007C333.77 241.128 332.611 239.808 331.573 238.049L312.153 204.346H314.91V245.725C314.91 248.924 314.071 251.402 312.392 253.162C310.714 254.921 308.237 255.8 304.96 255.8Z" fill="white"/>
<path d="M441.473 256.04C432.922 256.04 425.41 254.241 418.937 250.643C412.463 246.965 407.429 241.847 403.832 235.291C400.316 228.734 398.558 221.098 398.558 212.382C398.558 205.825 399.557 199.868 401.555 194.511C403.633 189.154 406.55 184.556 410.306 180.718C414.142 176.88 418.697 173.961 423.972 171.962C429.246 169.883 435.08 168.844 441.473 168.844C450.025 168.844 457.497 170.643 463.89 174.241C470.363 177.839 475.398 182.917 478.995 189.473C482.591 195.95 484.389 203.586 484.389 212.382C484.389 218.939 483.35 224.896 481.272 230.253C479.274 235.61 476.357 240.248 472.521 244.166C468.765 248.004 464.25 250.963 458.975 253.042C453.701 255.041 447.867 256.04 441.473 256.04ZM441.473 237.569C445.709 237.569 449.305 236.57 452.262 234.571C455.219 232.572 457.497 229.693 459.095 225.935C460.694 222.177 461.493 217.659 461.493 212.382C461.493 204.466 459.735 198.309 456.218 193.911C452.702 189.513 447.787 187.315 441.473 187.315C437.318 187.315 433.721 188.314 430.685 190.313C427.728 192.232 425.45 195.071 423.852 198.829C422.253 202.507 421.454 207.025 421.454 212.382C421.454 220.298 423.212 226.495 426.729 230.973C430.245 235.371 435.16 237.569 441.473 237.569Z" fill="white"/>
<path d="M507.722 255.8C504.365 255.8 501.808 254.921 500.05 253.162C498.291 251.402 497.412 248.804 497.412 245.366V179.998C497.412 176.48 498.291 173.801 500.05 171.962C501.808 170.043 504.125 169.084 507.002 169.084C509.56 169.084 511.558 169.563 512.996 170.523C514.435 171.482 516.033 173.082 517.791 175.321L555.792 222.817H552.435V179.399C552.435 176.04 553.275 173.481 554.953 171.722C556.711 169.963 559.268 169.084 562.625 169.084C565.981 169.084 568.499 169.963 570.177 171.722C571.935 173.481 572.814 176.04 572.814 179.399V245.845C572.814 248.884 572.015 251.323 570.417 253.162C568.818 254.921 566.661 255.8 563.944 255.8C561.226 255.8 559.069 255.321 557.47 254.361C555.952 253.322 554.313 251.722 552.555 249.563L514.555 201.947H517.911V245.366C517.911 248.804 517.032 251.402 515.274 253.162C513.596 254.921 511.078 255.8 507.722 255.8Z" fill="white"/>
<path d="M619.663 256.04C616.467 256.04 613.11 255.8 609.594 255.321C606.157 254.921 602.881 254.281 599.764 253.401C596.647 252.522 593.85 251.482 591.373 250.283C589.215 249.244 587.696 247.884 586.817 246.205C585.938 244.446 585.619 242.607 585.858 240.688C586.098 238.769 586.777 237.09 587.896 235.65C589.015 234.131 590.494 233.132 592.332 232.652C594.17 232.092 596.248 232.332 598.565 233.372C601.602 234.811 605.038 235.93 608.874 236.73C612.711 237.529 616.307 237.929 619.663 237.929C624.938 237.929 628.614 237.25 630.692 235.89C632.85 234.451 633.929 232.692 633.929 230.613C633.929 228.774 633.169 227.295 631.651 226.175C630.212 225.056 627.615 224.096 623.859 223.297L609.833 220.298C602.161 218.699 596.447 215.9 592.691 211.902C588.935 207.904 587.057 202.747 587.057 196.43C587.057 192.272 587.896 188.514 589.574 185.156C591.333 181.717 593.77 178.799 596.887 176.4C600.084 174.001 603.84 172.162 608.155 170.883C612.551 169.523 617.426 168.844 622.78 168.844C626.936 168.844 631.131 169.324 635.367 170.283C639.683 171.163 643.399 172.522 646.516 174.361C648.354 175.321 649.672 176.64 650.471 178.319C651.271 179.998 651.59 181.757 651.43 183.596C651.271 185.356 650.631 186.915 649.512 188.274C648.473 189.633 647.035 190.553 645.197 191.033C643.439 191.432 641.321 191.113 638.843 190.073C636.526 189.034 633.889 188.274 630.932 187.794C628.055 187.235 625.258 186.955 622.54 186.955C619.583 186.955 617.066 187.315 614.988 188.034C612.91 188.674 611.312 189.633 610.193 190.913C609.154 192.192 608.635 193.671 608.635 195.351C608.635 197.03 609.314 198.469 610.673 199.668C612.111 200.788 614.708 201.747 618.465 202.547L632.37 205.545C640.122 207.225 645.916 209.983 649.752 213.821C653.588 217.659 655.506 222.657 655.506 228.814C655.506 232.972 654.667 236.73 652.989 240.088C651.311 243.446 648.913 246.325 645.796 248.724C642.679 251.043 638.923 252.842 634.528 254.121C630.132 255.4 625.178 256.04 619.663 256.04Z" fill="white"/>
<path d="M695.511 255.8C691.995 255.8 689.277 254.841 687.359 252.922C685.441 250.923 684.482 248.164 684.482 244.646V188.154H665.662C662.705 188.154 660.427 187.395 658.829 185.875C657.311 184.276 656.551 182.037 656.551 179.159C656.551 176.2 657.311 173.961 658.829 172.442C660.427 170.923 662.705 170.163 665.662 170.163H725.36C728.317 170.163 730.555 170.923 732.073 172.442C733.671 173.961 734.471 176.2 734.471 179.159C734.471 182.037 733.671 184.276 732.073 185.875C730.555 187.395 728.317 188.154 725.36 188.154H706.54V244.646C706.54 248.164 705.621 250.923 703.782 252.922C701.944 254.841 699.187 255.8 695.511 255.8Z" fill="white"/>
<path d="M753.238 254.721C749.482 254.721 746.605 253.761 744.607 251.842C742.689 249.843 741.73 247.005 741.73 243.327V181.557C741.73 177.879 742.689 175.081 744.607 173.162C746.605 171.163 749.482 170.163 753.238 170.163H793.876C796.753 170.163 798.911 170.883 800.349 172.322C801.788 173.761 802.507 175.84 802.507 178.559C802.507 181.358 801.788 183.516 800.349 185.036C798.911 186.475 796.753 187.195 793.876 187.195H762.828V203.267H791.238C794.036 203.267 796.153 203.986 797.592 205.425C799.11 206.865 799.87 208.984 799.87 211.782C799.87 214.581 799.11 216.7 797.592 218.139C796.153 219.578 794.036 220.298 791.238 220.298H762.828V237.689H793.876C796.753 237.689 798.911 238.449 800.349 239.968C801.788 241.407 802.507 243.486 802.507 246.205C802.507 249.004 801.788 251.123 800.349 252.562C798.911 254.001 796.753 254.721 793.876 254.721H753.238Z" fill="white"/>
<path d="M826.393 255.8C822.877 255.8 820.159 254.841 818.241 252.922C816.323 250.923 815.364 248.164 815.364 244.646V181.318C815.364 177.719 816.323 174.961 818.241 173.042C820.239 171.123 822.997 170.163 826.513 170.163H856.002C865.592 170.163 872.985 172.522 878.179 177.24C883.454 181.877 886.091 188.354 886.091 196.67C886.091 202.027 884.892 206.705 882.495 210.703C880.177 214.621 876.781 217.659 872.305 219.818C867.91 221.897 862.476 222.937 856.002 222.937L856.961 220.778H862.715C866.152 220.778 869.189 221.617 871.826 223.297C874.463 224.896 876.661 227.375 878.419 230.733L884.413 241.527C885.692 243.846 886.291 246.125 886.211 248.364C886.131 250.523 885.252 252.322 883.574 253.761C881.975 255.121 879.618 255.8 876.501 255.8C873.384 255.8 870.827 255.161 868.829 253.881C866.911 252.602 865.193 250.603 863.674 247.884L852.766 227.854C851.807 226.095 850.568 224.896 849.05 224.256C847.611 223.536 845.933 223.177 844.015 223.177H837.422V244.646C837.422 248.164 836.503 250.923 834.664 252.922C832.826 254.841 830.069 255.8 826.393 255.8ZM837.422 207.584H852.046C856.282 207.584 859.519 206.745 861.756 205.066C863.994 203.387 865.113 200.788 865.113 197.27C865.113 193.911 863.994 191.393 861.756 189.713C859.519 187.954 856.282 187.075 852.046 187.075H837.422V207.584Z" fill="white"/>
<path d="M312.867 315.912C309.126 315.912 305.912 315.165 303.226 313.67C300.573 312.141 298.532 310.001 297.104 307.25C295.676 304.464 294.961 301.186 294.961 297.415C294.961 294.596 295.37 292.065 296.186 289.823C297.002 287.547 298.175 285.611 299.706 284.014C301.236 282.384 303.107 281.144 305.317 280.295C307.562 279.411 310.079 278.97 312.867 278.97C314.738 278.97 316.574 279.208 318.377 279.683C320.179 280.159 321.761 280.838 323.121 281.721C323.835 282.163 324.312 282.706 324.55 283.352C324.788 283.963 324.839 284.575 324.703 285.186C324.567 285.764 324.278 286.256 323.835 286.664C323.427 287.072 322.9 287.309 322.254 287.377C321.642 287.411 320.962 287.19 320.213 286.715C319.159 286.035 318.02 285.543 316.795 285.237C315.571 284.931 314.33 284.779 313.071 284.779C310.657 284.779 308.616 285.271 306.95 286.256C305.283 287.241 304.025 288.668 303.175 290.536C302.324 292.405 301.899 294.698 301.899 297.415C301.899 300.099 302.324 302.392 303.175 304.294C304.025 306.197 305.283 307.64 306.95 308.625C308.616 309.611 310.657 310.103 313.071 310.103C314.364 310.103 315.639 309.95 316.898 309.645C318.156 309.305 319.346 308.795 320.468 308.116C321.217 307.674 321.88 307.487 322.458 307.555C323.07 307.589 323.58 307.793 323.988 308.167C324.397 308.541 324.669 309.016 324.805 309.594C324.941 310.137 324.907 310.715 324.703 311.326C324.499 311.904 324.091 312.413 323.478 312.855C322.118 313.84 320.486 314.604 318.581 315.148C316.71 315.657 314.806 315.912 312.867 315.912Z" fill="white"/>
<path d="M339.779 315.912C337.194 315.912 334.95 315.385 333.045 314.332C331.141 313.279 329.661 311.785 328.607 309.848C327.553 307.878 327.025 305.568 327.025 302.919C327.025 300.914 327.314 299.131 327.893 297.568C328.505 295.972 329.372 294.613 330.494 293.492C331.617 292.337 332.96 291.471 334.524 290.893C336.089 290.282 337.84 289.976 339.779 289.976C342.364 289.976 344.608 290.503 346.513 291.556C348.417 292.609 349.897 294.103 350.951 296.04C352.005 297.976 352.532 300.269 352.532 302.919C352.532 304.923 352.226 306.723 351.614 308.32C351.036 309.916 350.186 311.292 349.064 312.447C347.941 313.568 346.598 314.434 345.033 315.046C343.469 315.623 341.717 315.912 339.779 315.912ZM339.779 311.071C341.037 311.071 342.143 310.766 343.095 310.154C344.047 309.543 344.778 308.642 345.288 307.454C345.833 306.231 346.105 304.719 346.105 302.919C346.105 300.201 345.527 298.18 344.37 296.855C343.214 295.496 341.683 294.817 339.779 294.817C338.521 294.817 337.415 295.122 336.463 295.734C335.511 296.311 334.763 297.212 334.218 298.434C333.708 299.623 333.453 301.118 333.453 302.919C333.453 305.602 334.031 307.64 335.188 309.033C336.344 310.392 337.874 311.071 339.779 311.071Z" fill="white"/>
<path d="M360.959 315.81C359.938 315.81 359.156 315.538 358.612 314.995C358.068 314.417 357.796 313.602 357.796 312.549V293.288C357.796 292.235 358.068 291.437 358.612 290.893C359.156 290.35 359.921 290.078 360.908 290.078C361.894 290.078 362.659 290.35 363.203 290.893C363.747 291.437 364.019 292.235 364.019 293.288V296.753L363.458 295.479C364.206 293.679 365.363 292.32 366.927 291.403C368.526 290.452 370.328 289.976 372.335 289.976C374.341 289.976 375.991 290.35 377.283 291.097C378.575 291.844 379.545 292.982 380.191 294.511C380.837 296.006 381.16 297.908 381.16 300.218V312.549C381.16 313.602 380.888 314.417 380.344 314.995C379.8 315.538 379.018 315.81 377.997 315.81C376.977 315.81 376.178 315.538 375.6 314.995C375.055 314.417 374.783 313.602 374.783 312.549V300.524C374.783 298.587 374.409 297.178 373.661 296.294C372.947 295.411 371.825 294.97 370.294 294.97C368.424 294.97 366.927 295.564 365.805 296.753C364.717 297.908 364.172 299.454 364.172 301.39V312.549C364.172 314.723 363.101 315.81 360.959 315.81Z" fill="white"/>
<path d="M399.064 315.912C396.854 315.912 395 315.538 393.504 314.791C392.041 314.044 390.953 312.957 390.239 311.53C389.525 310.069 389.167 308.269 389.167 306.129V295.275H386.515C385.698 295.275 385.069 295.071 384.627 294.664C384.185 294.222 383.964 293.628 383.964 292.88C383.964 292.099 384.185 291.505 384.627 291.097C385.069 290.689 385.698 290.486 386.515 290.486H389.167V285.849C389.167 284.796 389.439 283.997 389.984 283.454C390.562 282.91 391.361 282.638 392.381 282.638C393.402 282.638 394.184 282.91 394.728 283.454C395.272 283.997 395.544 284.796 395.544 285.849V290.486H400.952C401.768 290.486 402.397 290.689 402.839 291.097C403.281 291.505 403.502 292.099 403.502 292.88C403.502 293.628 403.281 294.222 402.839 294.664C402.397 295.071 401.768 295.275 400.952 295.275H395.544V305.772C395.544 307.403 395.901 308.625 396.615 309.441C397.33 310.256 398.486 310.664 400.084 310.664C400.663 310.664 401.173 310.613 401.615 310.511C402.057 310.409 402.448 310.341 402.788 310.307C403.196 310.273 403.536 310.409 403.808 310.715C404.081 310.986 404.217 311.564 404.217 312.447C404.217 313.126 404.098 313.738 403.859 314.281C403.655 314.791 403.264 315.148 402.686 315.352C402.244 315.487 401.666 315.606 400.952 315.708C400.237 315.844 399.608 315.912 399.064 315.912Z" fill="white"/>
<path d="M410.481 315.81C409.426 315.81 408.61 315.538 408.032 314.995C407.488 314.417 407.216 313.602 407.216 312.549V293.288C407.216 292.235 407.488 291.437 408.032 290.893C408.576 290.35 409.341 290.078 410.328 290.078C411.314 290.078 412.079 290.35 412.623 290.893C413.167 291.437 413.439 292.235 413.439 293.288V296.498H412.929C413.405 294.46 414.341 292.914 415.735 291.861C417.129 290.808 418.983 290.18 421.296 289.976C422.01 289.908 422.571 290.095 422.979 290.536C423.421 290.944 423.676 291.59 423.744 292.473C423.812 293.322 423.608 294.018 423.132 294.562C422.69 295.071 422.01 295.377 421.092 295.479L419.969 295.581C417.895 295.785 416.33 296.43 415.276 297.517C414.222 298.57 413.694 300.065 413.694 302.001V312.549C413.694 313.602 413.422 314.417 412.878 314.995C412.334 315.538 411.535 315.81 410.481 315.81Z" fill="white"/>
<path d="M438.17 315.912C435.586 315.912 433.341 315.385 431.437 314.332C429.532 313.279 428.053 311.785 426.998 309.848C425.944 307.878 425.417 305.568 425.417 302.919C425.417 300.914 425.706 299.131 426.284 297.568C426.896 295.972 427.764 294.613 428.886 293.492C430.008 292.337 431.352 291.471 432.916 290.893C434.48 290.282 436.232 289.976 438.17 289.976C440.755 289.976 443 290.503 444.904 291.556C446.809 292.609 448.288 294.103 449.343 296.04C450.397 297.976 450.924 300.269 450.924 302.919C450.924 304.923 450.618 306.723 450.006 308.32C449.428 309.916 448.577 311.292 447.455 312.447C446.333 313.568 444.989 314.434 443.425 315.046C441.861 315.623 440.109 315.912 438.17 315.912ZM438.17 311.071C439.429 311.071 440.534 310.766 441.486 310.154C442.439 309.543 443.17 308.642 443.68 307.454C444.224 306.231 444.496 304.719 444.496 302.919C444.496 300.201 443.918 298.18 442.762 296.855C441.605 295.496 440.075 294.817 438.17 294.817C436.912 294.817 435.807 295.122 434.855 295.734C433.902 296.311 433.154 297.212 432.61 298.434C432.1 299.623 431.845 301.118 431.845 302.919C431.845 305.602 432.423 307.64 433.579 309.033C434.736 310.392 436.266 311.071 438.17 311.071Z" fill="white"/>
<path d="M464.707 315.912C461.884 315.912 459.758 315.114 458.33 313.517C456.901 311.887 456.187 309.509 456.187 306.383V282.282C456.187 281.229 456.459 280.43 457.003 279.887C457.548 279.343 458.33 279.072 459.35 279.072C460.37 279.072 461.153 279.343 461.697 279.887C462.275 280.43 462.564 281.229 462.564 282.282V306.078C462.564 307.64 462.887 308.795 463.533 309.543C464.213 310.29 465.166 310.664 466.39 310.664C466.662 310.664 466.917 310.664 467.155 310.664C467.393 310.63 467.631 310.596 467.869 310.562C468.346 310.494 468.669 310.63 468.839 310.969C469.009 311.275 469.094 311.921 469.094 312.906C469.094 313.755 468.924 314.417 468.584 314.893C468.244 315.369 467.682 315.657 466.9 315.759C466.56 315.793 466.203 315.827 465.829 315.861C465.455 315.895 465.081 315.912 464.707 315.912Z" fill="white"/>
<path d="M498.775 315.81C497.721 315.81 496.904 315.521 496.326 314.944C495.782 314.332 495.51 313.483 495.51 312.396V296.906L496.887 300.829L484.593 283.556C484.151 282.944 483.947 282.299 483.981 281.619C484.049 280.906 484.338 280.312 484.848 279.836C485.358 279.326 486.072 279.072 486.991 279.072C487.671 279.072 488.283 279.241 488.827 279.581C489.405 279.921 489.949 280.447 490.46 281.161L499.591 294.103H498.163L507.345 281.161C507.889 280.413 508.417 279.887 508.927 279.581C509.437 279.241 510.066 279.072 510.814 279.072C511.698 279.072 512.379 279.309 512.855 279.785C513.365 280.227 513.62 280.787 513.62 281.467C513.654 282.146 513.416 282.859 512.906 283.607L500.713 300.829L502.04 296.906V312.396C502.04 314.672 500.951 315.81 498.775 315.81Z" fill="white"/>
<path d="M525.004 315.912C522.419 315.912 520.175 315.385 518.27 314.332C516.366 313.279 514.886 311.785 513.832 309.848C512.778 307.878 512.251 305.568 512.251 302.919C512.251 300.914 512.54 299.131 513.118 297.568C513.73 295.972 514.597 294.613 515.72 293.492C516.842 292.337 518.185 291.471 519.75 290.893C521.314 290.282 523.066 289.976 525.004 289.976C527.589 289.976 529.833 290.503 531.738 291.556C533.643 292.609 535.122 294.103 536.176 296.04C537.231 297.976 537.758 300.269 537.758 302.919C537.758 304.923 537.452 306.723 536.839 308.32C536.261 309.916 535.411 311.292 534.289 312.447C533.166 313.568 531.823 314.434 530.259 315.046C528.694 315.623 526.943 315.912 525.004 315.912ZM525.004 311.071C526.262 311.071 527.368 310.766 528.32 310.154C529.272 309.543 530.004 308.642 530.514 307.454C531.058 306.231 531.33 304.719 531.33 302.919C531.33 300.201 530.752 298.18 529.595 296.855C528.439 295.496 526.909 294.817 525.004 294.817C523.746 294.817 522.64 295.122 521.688 295.734C520.736 296.311 519.988 297.212 519.444 298.434C518.933 299.623 518.678 301.118 518.678 302.919C518.678 305.602 519.257 307.64 520.413 309.033C521.569 310.392 523.1 311.071 525.004 311.071Z" fill="white"/>
<path d="M552.05 315.912C549.976 315.912 548.258 315.538 546.898 314.791C545.538 314.01 544.517 312.855 543.837 311.326C543.191 309.797 542.868 307.895 542.868 305.619V293.288C542.868 292.201 543.14 291.403 543.684 290.893C544.228 290.35 545.01 290.078 546.031 290.078C547.051 290.078 547.833 290.35 548.377 290.893C548.956 291.403 549.245 292.201 549.245 293.288V305.721C549.245 307.487 549.602 308.795 550.316 309.645C551.03 310.494 552.169 310.918 553.734 310.918C555.434 310.918 556.829 310.341 557.917 309.186C559.005 307.997 559.549 306.434 559.549 304.498V293.288C559.549 292.201 559.822 291.403 560.366 290.893C560.91 290.35 561.692 290.078 562.712 290.078C563.733 290.078 564.515 290.35 565.059 290.893C565.637 291.403 565.926 292.201 565.926 293.288V312.549C565.926 314.723 564.889 315.81 562.814 315.81C561.828 315.81 561.063 315.538 560.519 314.995C559.975 314.417 559.703 313.602 559.703 312.549V308.676L560.417 310.205C559.703 312.039 558.614 313.449 557.152 314.434C555.723 315.419 554.023 315.912 552.05 315.912Z" fill="white"/>
<path d="M575.828 315.81C574.774 315.81 573.958 315.538 573.38 314.995C572.835 314.417 572.563 313.602 572.563 312.549V293.288C572.563 292.235 572.835 291.437 573.38 290.893C573.924 290.35 574.689 290.078 575.675 290.078C576.661 290.078 577.427 290.35 577.971 290.893C578.515 291.437 578.787 292.235 578.787 293.288V296.498H578.277C578.753 294.46 579.688 292.914 581.083 291.861C582.477 290.808 584.331 290.18 586.643 289.976C587.357 289.908 587.919 290.095 588.327 290.536C588.769 290.944 589.024 291.59 589.092 292.473C589.16 293.322 588.956 294.018 588.48 294.562C588.038 295.071 587.357 295.377 586.439 295.479L585.317 295.581C583.242 295.785 581.678 296.43 580.624 297.517C579.569 298.57 579.042 300.065 579.042 302.001V312.549C579.042 313.602 578.77 314.417 578.226 314.995C577.682 315.538 576.882 315.81 575.828 315.81Z" fill="white"/>
<path d="M619.654 315.81C618.735 315.81 617.987 315.589 617.409 315.148C616.865 314.706 616.423 314.01 616.083 313.059L605.421 282.944C605.047 281.857 605.115 280.94 605.625 280.193C606.169 279.445 607.07 279.072 608.329 279.072C609.247 279.072 609.961 279.292 610.471 279.734C610.981 280.142 611.389 280.804 611.695 281.721L620.878 308.931H618.837L628.428 281.772C628.768 280.855 629.193 280.176 629.704 279.734C630.214 279.292 630.877 279.072 631.693 279.072C632.509 279.072 633.155 279.292 633.632 279.734C634.108 280.176 634.516 280.872 634.856 281.823L644.141 308.931H642.355L651.691 281.721C651.997 280.838 652.405 280.176 652.915 279.734C653.425 279.292 654.122 279.072 655.007 279.072C656.095 279.072 656.894 279.445 657.404 280.193C657.914 280.94 657.982 281.857 657.608 282.944L646.844 313.11C646.504 314.027 646.062 314.706 645.518 315.148C644.974 315.589 644.243 315.81 643.324 315.81C642.406 315.81 641.675 315.589 641.131 315.148C640.587 314.706 640.144 314.01 639.804 313.059L630.928 287.785H632.101L623.123 313.11C622.783 314.027 622.34 314.706 621.796 315.148C621.286 315.589 620.572 315.81 619.654 315.81Z" fill="white"/>
<path d="M668.357 315.912C666.555 315.912 664.94 315.572 663.511 314.893C662.117 314.18 661.011 313.228 660.195 312.039C659.413 310.851 659.022 309.509 659.022 308.014C659.022 306.18 659.498 304.736 660.45 303.683C661.403 302.596 662.95 301.815 665.093 301.339C667.235 300.863 670.109 300.626 673.714 300.626H676.265V304.294H673.765C671.656 304.294 669.973 304.396 668.715 304.6C667.456 304.804 666.555 305.161 666.011 305.67C665.501 306.146 665.246 306.825 665.246 307.708C665.246 308.829 665.637 309.746 666.419 310.46C667.201 311.173 668.289 311.53 669.684 311.53C670.806 311.53 671.792 311.275 672.643 310.766C673.527 310.222 674.224 309.492 674.734 308.575C675.244 307.657 675.499 306.604 675.499 305.415V299.556C675.499 297.857 675.125 296.634 674.377 295.887C673.629 295.139 672.371 294.766 670.602 294.766C669.616 294.766 668.545 294.885 667.388 295.122C666.266 295.36 665.076 295.768 663.817 296.345C663.171 296.651 662.593 296.736 662.083 296.6C661.607 296.464 661.232 296.192 660.96 295.785C660.688 295.343 660.552 294.868 660.552 294.358C660.552 293.849 660.688 293.356 660.96 292.88C661.232 292.371 661.692 291.997 662.338 291.759C663.902 291.114 665.399 290.655 666.827 290.384C668.289 290.112 669.616 289.976 670.806 289.976C673.255 289.976 675.261 290.35 676.826 291.097C678.424 291.844 679.615 292.982 680.397 294.511C681.179 296.006 681.57 297.942 681.57 300.32V312.549C681.57 313.602 681.315 314.417 680.805 314.995C680.295 315.538 679.564 315.81 678.611 315.81C677.659 315.81 676.911 315.538 676.367 314.995C675.857 314.417 675.601 313.602 675.601 312.549V310.103H676.01C675.772 311.292 675.295 312.328 674.581 313.211C673.901 314.061 673.034 314.723 671.979 315.199C670.925 315.674 669.718 315.912 668.357 315.912Z" fill="white"/>
<path d="M699.47 315.912C697.259 315.912 695.406 315.538 693.909 314.791C692.447 314.044 691.358 312.957 690.644 311.53C689.93 310.069 689.573 308.269 689.573 306.129V295.275H686.92C686.104 295.275 685.475 295.071 685.033 294.664C684.591 294.222 684.37 293.628 684.37 292.88C684.37 292.099 684.591 291.505 685.033 291.097C685.475 290.689 686.104 290.486 686.92 290.486H689.573V285.849C689.573 284.796 689.845 283.997 690.389 283.454C690.967 282.91 691.767 282.638 692.787 282.638C693.807 282.638 694.589 282.91 695.134 283.454C695.678 283.997 695.95 284.796 695.95 285.849V290.486H701.357C702.173 290.486 702.803 290.689 703.245 291.097C703.687 291.505 703.908 292.099 703.908 292.88C703.908 293.628 703.687 294.222 703.245 294.664C702.803 295.071 702.173 295.275 701.357 295.275H695.95V305.772C695.95 307.403 696.307 308.625 697.021 309.441C697.735 310.256 698.892 310.664 700.49 310.664C701.068 310.664 701.578 310.613 702.02 310.511C702.463 310.409 702.854 310.341 703.194 310.307C703.602 310.273 703.942 310.409 704.214 310.715C704.486 310.986 704.622 311.564 704.622 312.447C704.622 313.126 704.503 313.738 704.265 314.281C704.061 314.791 703.67 315.148 703.092 315.352C702.65 315.487 702.071 315.606 701.357 315.708C700.643 315.844 700.014 315.912 699.47 315.912Z" fill="white"/>
<path d="M719.667 315.912C716.844 315.912 714.412 315.385 712.372 314.332C710.331 313.279 708.75 311.785 707.627 309.848C706.539 307.912 705.995 305.619 705.995 302.969C705.995 300.388 706.522 298.129 707.576 296.192C708.665 294.256 710.144 292.745 712.014 291.657C713.919 290.536 716.079 289.976 718.493 289.976C720.262 289.976 721.843 290.265 723.238 290.842C724.666 291.42 725.873 292.252 726.86 293.339C727.88 294.426 728.645 295.751 729.155 297.313C729.699 298.842 729.971 300.575 729.971 302.511C729.971 303.122 729.75 303.598 729.308 303.938C728.9 304.243 728.305 304.396 727.523 304.396H711.147V300.727H725.482L724.666 301.492C724.666 299.929 724.428 298.621 723.952 297.568C723.51 296.515 722.846 295.717 721.962 295.173C721.112 294.596 720.041 294.307 718.748 294.307C717.32 294.307 716.096 294.647 715.075 295.326C714.089 295.972 713.324 296.906 712.78 298.129C712.269 299.318 712.014 300.744 712.014 302.409V302.766C712.014 305.551 712.661 307.64 713.953 309.033C715.279 310.392 717.218 311.071 719.769 311.071C720.653 311.071 721.639 310.969 722.727 310.766C723.85 310.528 724.904 310.137 725.89 309.594C726.604 309.186 727.234 309.016 727.778 309.084C728.322 309.118 728.747 309.305 729.053 309.645C729.393 309.984 729.597 310.409 729.665 310.918C729.733 311.394 729.631 311.887 729.359 312.396C729.121 312.906 728.696 313.347 728.084 313.721C726.894 314.468 725.516 315.029 723.952 315.402C722.421 315.742 720.993 315.912 719.667 315.912Z" fill="white"/>
<path d="M738.286 315.81C737.232 315.81 736.416 315.538 735.838 314.995C735.293 314.417 735.021 313.602 735.021 312.549V293.288C735.021 292.235 735.293 291.437 735.838 290.893C736.382 290.35 737.147 290.078 738.133 290.078C739.12 290.078 739.885 290.35 740.429 290.893C740.973 291.437 741.245 292.235 741.245 293.288V296.498H740.735C741.211 294.46 742.146 292.914 743.541 291.861C744.935 290.808 746.789 290.18 749.101 289.976C749.816 289.908 750.377 290.095 750.785 290.536C751.227 290.944 751.482 291.59 751.55 292.473C751.618 293.322 751.414 294.018 750.938 294.562C750.496 295.071 749.816 295.377 748.897 295.479L747.775 295.581C745.7 295.785 744.136 296.43 743.082 297.517C742.027 298.57 741.5 300.065 741.5 302.001V312.549C741.5 313.602 741.228 314.417 740.684 314.995C740.14 315.538 739.341 315.81 738.286 315.81Z" fill="white"/>
<path d="M772.827 315.81C771.773 315.81 770.94 315.521 770.328 314.944C769.749 314.332 769.46 313.466 769.46 312.345V282.944C769.46 281.823 769.749 280.974 770.328 280.396C770.94 279.785 771.807 279.479 772.929 279.479H790.733C791.617 279.479 792.281 279.7 792.723 280.142C793.165 280.583 793.386 281.212 793.386 282.027C793.386 282.876 793.165 283.539 792.723 284.014C792.281 284.456 791.617 284.677 790.733 284.677H775.99V294.817H789.662C790.512 294.817 791.158 295.038 791.6 295.479C792.077 295.921 792.315 296.549 792.315 297.364C792.315 298.214 792.077 298.876 791.6 299.352C791.158 299.793 790.512 300.014 789.662 300.014H775.99V312.345C775.99 314.655 774.936 315.81 772.827 315.81Z" fill="white"/>
<path d="M808.056 315.912C805.233 315.912 803.107 315.114 801.679 313.517C800.251 311.887 799.536 309.509 799.536 306.383V282.282C799.536 281.229 799.808 280.43 800.353 279.887C800.897 279.343 801.679 279.072 802.699 279.072C803.72 279.072 804.502 279.343 805.046 279.887C805.624 280.43 805.913 281.229 805.913 282.282V306.078C805.913 307.64 806.236 308.795 806.882 309.543C807.563 310.29 808.515 310.664 809.739 310.664C810.011 310.664 810.266 310.664 810.504 310.664C810.742 310.63 810.981 310.596 811.219 310.562C811.695 310.494 812.018 310.63 812.188 310.969C812.358 311.275 812.443 311.921 812.443 312.906C812.443 313.755 812.273 314.417 811.933 314.893C811.593 315.369 811.032 315.657 810.249 315.759C809.909 315.793 809.552 315.827 809.178 315.861C808.804 315.895 808.43 315.912 808.056 315.912Z" fill="white"/>
<path d="M826.954 315.912C824.369 315.912 822.125 315.385 820.22 314.332C818.316 313.279 816.836 311.785 815.782 309.848C814.728 307.878 814.201 305.568 814.201 302.919C814.201 300.914 814.49 299.131 815.068 297.568C815.68 295.972 816.547 294.613 817.669 293.492C818.792 292.337 820.135 291.471 821.7 290.893C823.264 290.282 825.016 289.976 826.954 289.976C829.539 289.976 831.783 290.503 833.688 291.556C835.592 292.609 837.072 294.103 838.126 296.04C839.18 297.976 839.708 300.269 839.708 302.919C839.708 304.923 839.402 306.723 838.789 308.32C838.211 309.916 837.361 311.292 836.239 312.447C835.116 313.568 833.773 314.434 832.209 315.046C830.644 315.623 828.893 315.912 826.954 315.912ZM826.954 311.071C828.212 311.071 829.318 310.766 830.27 310.154C831.222 309.543 831.953 308.642 832.464 307.454C833.008 306.231 833.28 304.719 833.28 302.919C833.28 300.201 832.702 298.18 831.545 296.855C830.389 295.496 828.859 294.817 826.954 294.817C825.696 294.817 824.59 295.122 823.638 295.734C822.686 296.311 821.938 297.212 821.394 298.434C820.883 299.623 820.628 301.118 820.628 302.919C820.628 305.602 821.207 307.64 822.363 309.033C823.519 310.392 825.05 311.071 826.954 311.071Z" fill="white"/>
<path d="M854.114 315.81C853.264 315.81 852.533 315.606 851.921 315.199C851.309 314.757 850.815 314.078 850.441 313.16L843.044 294.307C842.738 293.492 842.636 292.779 842.738 292.167C842.874 291.522 843.197 291.012 843.707 290.638C844.218 290.265 844.898 290.078 845.748 290.078C846.496 290.078 847.108 290.265 847.585 290.638C848.061 290.978 848.469 291.641 848.809 292.626L854.982 309.594H853.808L860.185 292.218C860.457 291.471 860.814 290.927 861.256 290.587C861.732 290.248 862.345 290.078 863.093 290.078C863.841 290.078 864.453 290.265 864.929 290.638C865.405 290.978 865.763 291.505 866.001 292.218L872.275 309.594H871.204L877.428 292.473C877.768 291.556 878.193 290.927 878.703 290.587C879.247 290.248 879.842 290.078 880.489 290.078C881.305 290.078 881.934 290.282 882.376 290.689C882.818 291.097 883.073 291.624 883.141 292.269C883.209 292.88 883.09 293.56 882.784 294.307L875.438 313.16C875.098 314.044 874.605 314.706 873.959 315.148C873.347 315.589 872.615 315.81 871.765 315.81C870.915 315.81 870.167 315.589 869.521 315.148C868.908 314.706 868.432 314.044 868.092 313.16L861.409 295.479H864.317L857.787 313.11C857.447 314.027 856.971 314.706 856.359 315.148C855.747 315.589 854.999 315.81 854.114 315.81Z" fill="white"/>
</svg>
